<svg xmlns="http://www.w3.org/2000/svg" fill="none" viewBox="0 0 84 20" height="20" width="84">
<path fill="black" d="M38.5096 7.88329C38.5096 8.48293 38.4064 8.5349 37.7834 8.77075V9.50231H45.6172V6.29224H44.8394L44.4742 7.3636C44.2401 8.06718 43.9544 8.45894 43.1527 8.45894H42.2955C41.6209 8.45894 41.2836 8.25107 41.2836 7.54749V1.83093C41.2836 1.23129 41.4899 1.20331 42.1408 0.943463V0.211903H37.7834V0.943463C38.4064 1.17932 38.5096 1.23129 38.5096 1.83093V7.88329ZM30.9615 1.83093C30.9615 1.23129 31.1679 1.20331 31.8187 0.943463V0.211903H27.4613V0.943463C28.0844 1.17932 28.1875 1.23129 28.1875 1.83093V6.05639C28.1875 8.24707 29.5884 9.71019 32.4695 9.71019C34.9102 9.71019 36.4142 8.40697 36.4142 6.39618V1.83093C36.4142 1.23129 36.5174 1.17932 37.1405 0.943463V0.211903H34.4697V0.943463C35.0927 1.17932 35.1959 1.23129 35.1959 1.83093V6.16432C35.1959 7.51951 34.4696 8.355 33.041 8.355C31.7949 8.355 30.9655 7.65143 30.9655 6.29224V1.83093H30.9615ZM13.9208 8.66682C12.8295 8.66682 12.3136 7.64743 12.3136 4.85711C12.3136 2.06679 12.8335 1.0474 13.9208 1.0474C15.0082 1.0474 15.528 2.06679 15.528 4.85711C15.528 7.64743 15.0082 8.66682 13.9208 8.66682ZM13.9208 0.00402832C11.0913 0.00402832 9.27765 2.27466 9.27765 4.85711C9.27765 7.43955 11.0953 9.71019 13.9208 9.71019C16.7464 9.71019 18.5639 7.43955 18.5639 4.85711C18.5639 2.27466 16.7504 0.00402832 13.9208 0.00402832ZM22.8499 5.01301H22.2784V1.25528H22.8499C23.6278 1.25528 24.223 1.59507 24.223 3.13414C24.223 4.67322 23.6278 5.01301 22.8499 5.01301ZM23.5524 0.211903H18.7783V0.943463C19.4013 1.17932 19.5045 1.23129 19.5045 1.83093V7.88329C19.5045 8.48293 19.4013 8.5349 18.7783 8.77075V9.50231H23.1356V8.77075C22.4888 8.51091 22.2784 8.48293 22.2784 7.88329V6.05639H23.5484C26.0406 6.05639 27.2589 4.67322 27.2589 3.13414C27.2589 1.59507 26.0406 0.211903 23.5484 0.211903H23.5524ZM60.2291 4.83312H59.8125V1.25528H60.2291C61.2411 1.25528 61.9951 1.64704 61.9951 3.00222C61.9951 4.35741 61.2411 4.82913 60.2291 4.82913V4.83312ZM64.6897 7.54349L63.1579 5.1969C64.273 4.80514 65.0271 3.96964 65.0271 2.8743C65.0271 1.43916 63.7809 0.211903 61.4713 0.211903H56.3083V0.943463C56.9313 1.17932 57.0345 1.23129 57.0345 1.83093V7.88329C57.0345 8.48293 56.9313 8.5349 56.3083 8.77075V9.50231H60.6657V8.77075C60.0188 8.51091 59.8085 8.48293 59.8085 7.88329V5.8725H60.3799L62.5349 9.49832H66.0628V8.76676C65.4676 8.63484 65.154 8.24307 64.6897 7.53949V7.54349ZM4.36863 5.01301H3.79719V1.25528H4.36863C5.14646 1.25528 5.74573 1.59507 5.74573 3.13414C5.74573 4.67322 5.15042 5.01301 4.36863 5.01301ZM5.06709 0.211903H0.29303V0.943463C0.916083 1.17932 1.01925 1.23129 1.01925 1.83093V7.88329C1.01925 8.48293 0.916083 8.5349 0.29303 8.77075V9.50231H4.65043V8.77075C4.00356 8.51091 3.79322 8.48293 3.79322 7.88329V6.05639H5.06312C7.55533 6.05639 8.7737 4.67322 8.7737 3.13414C8.7737 1.59507 7.55533 0.211903 5.06312 0.211903H5.06709ZM48.915 5.72059L50.0301 2.43457L51.0659 5.72059H48.911H48.915ZM54.959 8.17111L52.1572 0.211903H48.3157V0.995432C49.0935 0.995432 49.2761 1.30724 48.9904 2.14274L46.8633 8.17111C46.7323 8.51091 46.6053 8.6948 46.137 8.77075V9.50231H48.9666V8.77075C48.1887 8.77075 48.0578 8.45894 48.2126 7.93526L48.5776 6.75996H51.4072L51.7961 7.93526C51.9786 8.45894 51.8199 8.63883 51.2008 8.77075V9.50231H55.6654V8.77075C55.2249 8.63883 55.0939 8.51091 54.9629 8.17111H54.959ZM61.8364 10.4937V11.2253C62.4594 11.4611 62.5626 11.5131 62.5626 12.1127V18.1651C62.5626 18.7647 62.4594 18.8167 61.8364 19.0526V19.7841H66.0668V19.0526C65.4438 18.8167 65.3406 18.7647 65.3406 18.1651V12.1127C65.3406 11.5131 65.4438 11.4611 66.0668 11.2253V10.4937H61.8364ZM21.2823 15.087C21.2823 17.9572 23.0722 19.992 26.239 19.992C27.251 19.992 28.5487 19.7841 29.6123 19.4723V16.5221H28.8344C28.3661 18.269 27.874 18.9486 26.6041 18.9486C25.3342 18.9486 24.3222 17.9572 24.3222 15.1389C24.3222 12.3206 25.4652 11.3292 26.6319 11.3292C27.6955 11.3292 28.2907 11.721 28.8106 13.4439H29.5884V10.5737C28.5249 10.5737 27.4851 10.2858 26.2152 10.2858C23.6198 10.2858 21.2863 11.8529 21.2863 15.087H21.2823ZM66.3486 15.087C66.3486 17.9572 68.1384 19.992 71.3052 19.992C72.3172 19.992 73.6149 19.7841 74.6784 19.4723V16.5221H73.9006C73.4323 18.269 72.9402 18.9486 71.6703 18.9486C70.4004 18.9486 69.3884 17.9572 69.3884 15.1389C69.3884 12.3206 70.5314 11.3292 71.6981 11.3292C72.7616 11.3292 73.3569 11.721 73.8768 13.4439H74.6546V10.5737C73.5911 10.5737 72.5513 10.2858 71.2814 10.2858C68.686 10.2858 66.3525 11.8529 66.3525 15.087H66.3486ZM20.7546 16.5741H19.9767L19.6116 17.6454C19.3775 18.349 19.0918 18.7408 18.2901 18.7408H17.175C16.5003 18.7408 16.163 18.5329 16.163 17.8293V15.5347H18.1591V14.4913H16.163V11.5411H18.1591C18.9647 11.5411 19.1711 11.9568 19.4807 12.6364L19.8458 13.4439H20.6236V10.4937H12.6588V11.2253C13.2819 11.4611 13.3851 11.5131 13.3851 12.1127V18.1651C13.3851 18.7647 13.2819 18.8167 12.6588 19.0526V19.7841H20.7546V16.5741ZM2.96779 19.0526C2.34474 18.8167 2.24152 18.7647 2.24152 18.1651V12.2407L4.78534 19.7801H6.03145L8.47209 12.2407V18.1651C8.47209 18.7647 8.36888 18.8167 7.74582 19.0526V19.7841H11.9762V19.0526C11.3532 18.8167 11.25 18.7647 11.25 18.1651V12.1127C11.25 11.5131 11.3532 11.4611 11.9762 11.2253V10.4937H7.84901L6.29339 15.4267L4.68613 10.4937H0.300926V11.2253C0.923979 11.4611 1.02719 11.5131 1.02719 12.1127V18.1651C1.02719 18.7647 0.923979 18.8167 0.300926 19.0526V19.7841H2.97176V19.0526H2.96779ZM54.3121 19.0526C53.6653 18.7927 53.4549 18.7647 53.4549 18.1651V12.8163L57.8123 19.7841H60.4593V12.1127C60.4593 11.5131 60.5625 11.4611 61.1856 11.2253V10.4937H58.5148V11.2253C59.1378 11.4611 59.241 11.5131 59.241 12.1127V16.602L55.4511 10.4977H51.5064V11.2293C52.1294 11.4651 52.2327 11.5171 52.2327 12.1167V18.1691C52.2327 18.7687 52.1294 18.8207 51.5064 19.0566V19.7881H54.3082V19.0566L54.3121 19.0526ZM30.521 19.7841H34.7514V19.0526C34.1284 18.8167 34.0252 18.7647 34.0252 18.1651V15.5307H37.1921V18.1651C37.1921 18.7647 37.0889 18.8167 36.4658 19.0526V19.7841H40.6962V19.0526C40.0732 18.8167 39.97 18.7647 39.97 18.1651V12.1127C39.97 11.5131 40.0732 11.4611 40.6962 11.2253V10.4937H36.4658V11.2253C37.0889 11.4611 37.1921 11.5131 37.1921 12.1127V14.4873H34.0252V12.1127C34.0252 11.5131 34.1284 11.4611 34.7514 11.2253V10.4937H30.521V11.2253C31.1441 11.4611 31.2473 11.5131 31.2473 12.1127V18.1651C31.2473 18.7647 31.1441 18.8167 30.521 19.0526V19.7841ZM76.365 16.5221H75.5872V19.4723C76.2619 19.4723 77.4286 19.992 79.1152 19.992C81.5558 19.992 83.1869 18.6368 83.1869 16.8099C83.1869 15.9225 82.8495 15.2948 82.3575 14.8511C81.7622 14.3034 80.9566 14.0676 79.8652 13.7558C79.3215 13.5998 78.9565 13.4959 78.6985 13.312C78.4406 13.1281 78.258 12.8683 78.258 12.4525C78.258 11.8249 78.8017 11.3292 79.6867 11.3292C80.905 11.3292 81.659 12.1887 81.8416 13.2321H82.6471V10.5697C81.8177 10.5697 80.8058 10.2818 79.3771 10.2818C77.0436 10.2818 75.5356 11.5091 75.5356 13.36C75.5356 14.1435 75.8214 14.7671 76.2381 15.2389C76.7063 15.7346 77.3532 15.9944 78.0279 16.2063C78.6509 16.3902 79.0914 16.5181 79.5597 16.702C80.0518 16.8859 80.4169 17.2497 80.4169 17.7733C80.4169 18.401 79.8732 18.9486 78.885 18.9486C77.5873 18.9486 76.5754 18.0891 76.369 16.5221H76.365ZM44.1171 15.9984L45.2322 12.7124L46.272 15.9984H44.1171ZM50.1611 18.4529L47.3593 10.4937H43.5178V11.2772C44.2956 11.2772 44.4782 11.5891 44.1925 12.4246L42.0653 18.4529C41.9344 18.7927 41.8074 18.9766 41.3391 19.0526V19.7841H44.1687V19.0526C43.3908 19.0526 43.2599 18.7408 43.4146 18.2171L43.7798 17.0418H46.6093L46.9982 18.2171C47.1807 18.7408 47.026 18.9206 46.4029 19.0526V19.7841H50.8675V19.0526C50.427 18.9206 50.296 18.7927 50.169 18.4529H50.1611Z" clip-rule="evenodd" fill-rule="evenodd"></path>
</svg>
